<svg xmlns="http://www.w3.org/2000/svg" width="1080" height="1350" viewBox="0 0 1080 1350">
      <defs>
        <linearGradient id="bg" x1="0" x2="1" y1="0" y2="1">
          <stop offset="0%" stop-color="#161616" />
          <stop offset="100%" stop-color="#f6d365" />
        </linearGradient>
        <filter id="blur"><feGaussianBlur stdDeviation="28" /></filter>
      </defs>
      <rect width="1080" height="1350" fill="url(#bg)" />
      <circle cx="840" cy="220" r="210" fill="rgba(246, 211, 101, 0.28)" filter="url(#blur)" />
      <circle cx="250" cy="980" r="240" fill="rgba(246, 211, 101, 0.28)" filter="url(#blur)" />
      <path d="M0 970 C160 780, 340 820, 510 940 S900 1150,1080 980 L1080 1350 L0 1350 Z" fill="rgba(8,14,27,0.45)" />
      <path d="M0 860 C180 700, 360 760, 540 850 S900 1040,1080 900" stroke="rgba(255,255,255,0.14)" stroke-width="10" fill="none" />
      <path d="M0 760 C190 620, 420 680, 600 780 S920 900,1080 760" stroke="rgba(255,255,255,0.08)" stroke-width="7" fill="none" />
      <rect x="120" y="138" width="840" height="300" rx="28" fill="rgba(255,255,255,0.06)" />
      <rect x="120" y="138" width="840" height="300" rx="28" stroke="rgba(255,255,255,0.12)" fill="none" />
      <g opacity="0.9">
        <circle cx="220" cy="1080" r="28" fill="rgba(255,255,255,0.18)" />
        <circle cx="320" cy="1045" r="22" fill="rgba(255,255,255,0.13)" />
        <circle cx="410" cy="1105" r="18" fill="rgba(255,255,255,0.12)" />
        <circle cx="495" cy="1070" r="24" fill="rgba(255,255,255,0.16)" />
        <circle cx="590" cy="1110" r="20" fill="rgba(255,255,255,0.11)" />
        <circle cx="680" cy="1055" r="26" fill="rgba(255,255,255,0.15)" />
        <circle cx="780" cy="1090" r="21" fill="rgba(255,255,255,0.12)" />
        <circle cx="870" cy="1040" r="27" fill="rgba(255,255,255,0.18)" />
      </g>
      <rect x="160" y="180" width="220" height="18" rx="9" fill="rgba(255,255,255,0.18)" />
      <rect x="160" y="222" width="360" height="18" rx="9" fill="rgba(255,255,255,0.12)" />
      <rect x="160" y="264" width="280" height="18" rx="9" fill="rgba(255,255,255,0.12)" />
      <rect x="160" y="322" width="640" height="14" rx="7" fill="rgba(255,255,255,0.08)" />
      <desc>Hackathon</desc>
    </svg>